<?xml version="1.0" encoding="utf-8"?>
<!-- Generator: Adobe Illustrator 16.0.0, SVG Export Plug-In . SVG Version: 6.00 Build 0)  -->
<!DOCTYPE svg PUBLIC "-//W3C//DTD SVG 1.0//EN" "http://www.w3.org/TR/2001/REC-SVG-20010904/DTD/svg10.dtd">
<svg version="1.0" id="Layer_1" xmlns="http://www.w3.org/2000/svg" xmlns:xlink="http://www.w3.org/1999/xlink" x="0px" y="0px"
	 width="792px" height="612px" viewBox="0 0 792 612" enable-background="new 0 0 792 612" xml:space="preserve">
<g>
	<path fill-rule="evenodd" clip-rule="evenodd" d="M651.879,306.73c2.738,136.912-110.338,251.223-245.927,254.863
		C257.101,565.59,141.78,445.451,143.361,304.101c1.565-139.881,115.707-251.224,253.978-251.767
		C541.247,51.77,654.795,172.316,651.879,306.73z M397.94,511.154c110.327,4.802,211.472-95.656,204.172-209.375
		c1.92-99.917-86.347-198.833-203.754-199.784c-108.406-0.879-212.321,93.606-204.442,213.06
		C193.781,421.242,290.687,515.636,397.94,511.154z"/>
	<path fill-rule="evenodd" clip-rule="evenodd" d="M483.204,182.24c15.549,15.567,30.091,30.126,44.944,44.995
		c-27.725,27.319-55.529,54.717-83.911,82.683c28.976,28.635,56.737,56.067,84.302,83.308
		c-15.379,15.296-29.987,29.826-44.838,44.597c-26.888-27.276-54.294-55.08-82.482-83.677
		c-28.618,29.151-55.955,56.997-83.139,84.689c-15.409-15.529-29.911-30.146-44.636-44.985c27.2-26.835,54.964-54.226,83.224-82.107
		c-29.04-28.658-56.832-56.085-84.167-83.062c15.315-15.702,29.678-30.428,44.762-45.893c27.376,28.165,54.483,56.054,81.825,84.185
		C428.021,237.827,455.521,210.125,483.204,182.24z"/>
</g>
</svg>
